<svg width="512" height="512" viewBox="0 0 512 512" fill="none" xmlns="http://www.w3.org/2000/svg">
<path d="M32 128C32 74.9807 74.9807 32 128 32H384C437.019 32 480 74.9807 480 128V384C480 437.019 437.019 480 384 480H128C74.9807 480 32 437.019 32 384V128Z" fill="#5d4fdb" id="id_101"></path>
<path fill-rule="evenodd" clip-rule="evenodd" d="M128 32C74.9807 32 32 74.9807 32 128V368C32 412.183 67.8172 448 112 448H368C412.183 448 448 412.183 448 368V112C448 67.8172 412.183 32 368 32H128Z" fill="#8a7feb" id="id_102"></path>
<path fill-rule="evenodd" clip-rule="evenodd" d="M360 108C371.046 108 380 116.954 380 128V375.259C380 402.424 345.206 413.675 329.301 391.653L172 173.852V384C172 395.046 163.046 404 152 404C140.954 404 132 395.046 132 384V136.741C132 109.576 166.794 98.3251 182.699 120.347L340 338.148V128C340 116.954 348.954 108 360 108Z" fill="#ffffff" id="id_103"></path>
</svg>